<svg width="48" height="48" viewBox="0 0 48 48"  xmlns="http://www.w3.org/2000/svg">
<g id="solar:cart-large-2-outline">
<path id="Vector" fill-rule="evenodd" clip-rule="evenodd" d="M10.5066 9.05909C10.2185 8.96239 9.90407 8.98505 9.63251 9.1221C9.36096 9.25914 9.15452 9.49934 9.05861 9.78984C8.9627 10.0804 8.98518 10.3974 9.1211 10.6712C9.25702 10.945 9.49525 11.1531 9.78338 11.2498L10.1877 11.3852C11.2192 11.7313 11.9028 11.9636 12.4048 12.199C12.8808 12.4221 13.0868 12.6021 13.2181 12.7867C13.3508 12.9713 13.4546 13.2236 13.5141 13.7498C13.5766 14.3051 13.5782 15.0313 13.5782 16.1282V20.2389C13.5782 22.3419 13.5782 24.0388 13.7567 25.3726C13.9398 26.7572 14.3365 27.9233 15.2551 28.8494C16.1721 29.7756 17.3302 30.1725 18.7035 30.3602C20.0248 30.5386 21.7079 30.5386 23.7937 30.5386H36.0844C36.3879 30.5386 36.6789 30.4171 36.8936 30.2007C37.1082 29.9843 37.2287 29.6908 37.2287 29.3848C37.2287 29.0788 37.1082 28.7853 36.8936 28.5689C36.6789 28.3526 36.3879 28.231 36.0844 28.231H23.8776C21.688 28.231 20.1606 28.2279 19.0071 28.0725C17.8887 27.9202 17.2951 27.6418 16.8725 27.2172C16.7186 27.0619 16.5876 26.8852 16.4834 26.6926H31.5969C32.2804 26.6926 32.8816 26.6926 33.3821 26.6387C33.9222 26.5787 34.4471 26.448 34.9385 26.1203C35.4328 25.7926 35.7578 25.3587 36.0249 24.8803C36.2705 24.4403 36.5085 23.8819 36.7771 23.248L37.4897 21.5711C38.0771 20.1927 38.5669 19.0373 38.8126 18.0989C39.0689 17.1189 39.136 16.0959 38.5318 15.1713C37.9276 14.2482 36.9678 13.9067 35.9745 13.7575C35.0208 13.6159 33.7758 13.6159 32.2865 13.6159H15.8013C15.7971 13.5733 15.7925 13.5308 15.7876 13.4882C15.7037 12.7421 15.519 12.0575 15.075 11.4375C14.631 10.816 14.0451 10.4221 13.3706 10.1068C12.7344 9.8083 11.9272 9.53754 10.972 9.21447L10.5066 9.05909ZM15.8669 15.9236V20.1542C15.8669 21.9573 15.8684 23.3142 15.9539 24.3849H31.5404C32.2972 24.3849 32.7748 24.3834 33.1364 24.3434C33.4706 24.308 33.5988 24.248 33.6796 24.1942C33.7605 24.1403 33.8658 24.0449 34.0306 23.7495C34.2091 23.4296 34.3968 22.988 34.6958 22.288L35.3504 20.7496C35.9821 19.2604 36.4033 18.2635 36.6001 17.5097C36.7924 16.7774 36.6947 16.5559 36.6215 16.442C36.5467 16.3297 36.3819 16.1512 35.6388 16.042C34.8744 15.9266 33.8002 15.9236 32.195 15.9236H15.8669ZM15.104 35.5385C15.104 36.4566 15.4657 37.337 16.1095 37.9862C16.7534 38.6353 17.6266 39 18.5372 39C19.4477 39 20.3209 38.6353 20.9648 37.9862C21.6086 37.337 21.9703 36.4566 21.9703 35.5385C21.9703 34.6205 21.6086 33.7401 20.9648 33.0909C20.3209 32.4418 19.4477 32.0771 18.5372 32.0771C17.6266 32.0771 16.7534 32.4418 16.1095 33.0909C15.4657 33.7401 15.104 34.6205 15.104 35.5385ZM18.5372 36.6924C18.2336 36.6924 17.9426 36.5708 17.7279 36.3544C17.5133 36.138 17.3928 35.8445 17.3928 35.5385C17.3928 35.2325 17.5133 34.939 17.7279 34.7227C17.9426 34.5063 18.2336 34.3847 18.5372 34.3847C18.8407 34.3847 19.1317 34.5063 19.3464 34.7227C19.561 34.939 19.6815 35.2325 19.6815 35.5385C19.6815 35.8445 19.561 36.138 19.3464 36.3544C19.1317 36.5708 18.8407 36.6924 18.5372 36.6924ZM32.2697 39C31.3592 39 30.486 38.6353 29.8421 37.9862C29.1983 37.337 28.8366 36.4566 28.8366 35.5385C28.8366 34.6205 29.1983 33.7401 29.8421 33.0909C30.486 32.4418 31.3592 32.0771 32.2697 32.0771C33.1803 32.0771 34.0535 32.4418 34.6974 33.0909C35.3412 33.7401 35.7029 34.6205 35.7029 35.5385C35.7029 36.4566 35.3412 37.337 34.6974 37.9862C34.0535 38.6353 33.1803 39 32.2697 39ZM31.1254 35.5385C31.1254 35.8445 31.2459 36.138 31.4605 36.3544C31.6752 36.5708 31.9662 36.6924 32.2697 36.6924C32.5733 36.6924 32.8643 36.5708 33.079 36.3544C33.2936 36.138 33.4141 35.8445 33.4141 35.5385C33.4141 35.2325 33.2936 34.939 33.079 34.7227C32.8643 34.5063 32.5733 34.3847 32.2697 34.3847C31.9662 34.3847 31.6752 34.5063 31.4605 34.7227C31.2459 34.939 31.1254 35.2325 31.1254 35.5385Z" fill="#F8F8F8"/>
</g>
</svg>
