<svg width="48" height="48" viewBox="0 0 48 48" xmlns="http://www.w3.org/2000/svg">
<g id="iconamoon:search-light">
<path id="Vector" d="M37 37L30.7268 30.7268M30.7268 30.7268C31.7999 29.6538 32.6511 28.3799 33.2318 26.9779C33.8125 25.5759 34.1114 24.0732 34.1114 22.5557C34.1114 21.0382 33.8125 19.5355 33.2318 18.1335C32.6511 16.7315 31.7999 15.4576 30.7268 14.3846C29.6538 13.3115 28.3799 12.4604 26.9779 11.8796C25.5759 11.2989 24.0732 11 22.5557 11C21.0382 11 19.5355 11.2989 18.1335 11.8796C16.7315 12.4604 15.4576 13.3115 14.3846 14.3846C12.2175 16.5517 11 19.491 11 22.5557C11 25.6205 12.2175 28.5597 14.3846 30.7268C16.5517 32.894 19.491 34.1114 22.5557 34.1114C25.6205 34.1114 28.5597 32.894 30.7268 30.7268Z" stroke="#F8F8F8" stroke-width="2" stroke-linecap="round" stroke-linejoin="round"/>
</g>
</svg>
